PathFileType	4	(X/Y/Z)	C:\Users\WrightLab\Desktop\Jo\P2_Trial25.trc
DataRate	CameraRate	NumFrames	NumMarkers	Units	OrigDataRate	OrigDataStartFrame	OrigNumFrames
100.00	100.00	       14	19	mm	100.00	397	       529
Frame#	Time	Headset_Front			Headset_Back			Headset_Left			Headset_Right			Left_Shoulder			Right_Shoulder			Sternum			C7			Left Elbow			Right Elbow			Left Wrist			Right Wrist			Left ASIS			Right ASIS			S2			Left Knee			Right Knee			Left Ankle			Right Ankle			
		X1	Y1	Z1	X2	Y2	Z2	X3	Y3	Z3	X4	Y4	Z4	X5	Y5	Z5	X6	Y6	Z6	X7	Y7	Z7	X8	Y8	Z8	X9	Y9	Z9	X10	Y10	Z10	X11	Y11	Z11	X12	Y12	Z12	X13	Y13	Z13	X14	Y14	Z14	X15	Y15	Z15	X16	Y16	Z16	X17	Y17	Z17	X18	Y18	Z18	X19	Y19	Z19	

397	3.960	4.55514	1528.53320	1900.44336				155.08252	1651.56775	1818.39709	-71.68700	1603.67773	1797.11426	239.02818	1505.03101	1708.08801				62.45641	1392.68506	1764.56958				348.44653	1210.60974	1706.29382	-202.85567	1186.83728	1610.70056				-278.83841	943.26355	1650.49731	103.77662	1084.55774	1825.14392	-31.01836	1077.70203	1793.11694	101.78574	999.90387	1552.30322	227.25732	513.69983	1820.35266	-100.15092	632.68610	1806.26782	115.38763	179.12437	1856.76477	-31.73347	369.73233	1654.62048	
398	3.970	2.69545	1529.59717	1910.41345				153.98169	1652.73621	1828.07703	-72.52804	1604.63904	1804.59778	237.77499	1506.09387	1719.04224				61.28889	1393.33618	1773.09753				349.71451	1212.88892	1718.52905	-203.16422	1189.36011	1610.69336				-281.22086	945.04584	1647.27844	104.05905	1085.19727	1832.25574	-30.96313	1078.22046	1799.42639	98.57243	1000.84442	1559.45203	226.53407	511.61154	1819.18091	-105.77420	637.60071	1818.65515	116.38715	177.22516	1855.01355	-34.11195	363.45038	1680.22656	
399	3.980	0.95190	1529.88928	1919.90491				152.63611	1652.39038	1837.57532	-73.43627	1604.22778	1812.17322	237.78806	1506.80640	1728.73254				59.83662	1393.51685	1781.78992				351.16653	1214.48120	1731.18579	-203.56770	1191.20850	1611.48743				-282.88129	946.92206	1641.61511	103.42572	1085.19312	1840.67676	-31.77158	1079.44031	1807.84741	97.57098	1002.18787	1567.15881	226.19461	510.12451	1817.44910	-111.17869	641.63654	1830.86279	117.97147	174.87259	1853.12207	-37.46862	356.35352	1703.08667	
400	3.990	-1.01687	1529.84924	1927.31812				151.01637	1652.65588	1848.13672	-74.40038	1604.64514	1822.14941	236.96231	1507.72791	1738.52161				59.35647	1394.10010	1790.45569				352.23071	1216.37024	1743.22974	-203.89960	1192.36157	1612.09631				-284.33932	948.33002	1637.21729	102.91965	1085.59216	1848.42737	-31.65814	1078.77625	1816.12598	94.83894	1003.48816	1574.66687	225.87321	508.60672	1816.16785	-116.12063	645.21387	1843.76855	120.59660	171.66136	1850.14478	-41.80297	347.86450	1724.96521	
401	4.000	-2.89879	1529.75513	1937.33777				149.45938	1652.34558	1858.08765	-75.49976	1604.76038	1829.84216	235.49350	1508.09448	1749.04358				58.90106	1393.47156	1799.24170				353.35791	1218.02271	1755.19287	-204.10896	1193.84741	1612.86230				-285.59494	949.58258	1632.97827	103.00196	1084.56848	1855.94263	-32.54964	1078.67395	1825.56482	93.37840	1003.80640	1581.75256	225.39909	506.80438	1814.28845	-121.02863	648.33777	1856.27612	123.00443	169.38815	1848.16931	-47.00874	338.21915	1746.60767	
402	4.010	-4.67808	1528.68982	1945.48779				148.20607	1652.25940	1868.83643	-76.89765	1604.58484	1838.22583	235.39232	1507.44958	1757.47302				57.61432	1392.93933	1807.03162				354.29718	1219.75269	1767.32642	-204.20537	1195.11401	1613.67725				-286.56473	950.30267	1629.39832	102.01620	1084.30713	1864.19189	-33.25352	1077.57715	1832.49524	91.63418	1004.10974	1590.00635	224.85030	505.69574	1812.97498	-125.38448	651.45404	1866.32861	125.32586	166.77417	1846.45154	-51.30813	326.81189	1768.95044	
403	4.020	-6.64995	1527.83618	1953.96240				146.92885	1651.08618	1878.54553	-77.98215	1604.38098	1847.86523	233.59065	1506.98376	1767.54736				56.89122	1391.99426	1814.81104				355.17627	1221.14856	1778.94495	-204.24532	1195.84351	1614.28357				-287.02811	950.89215	1625.60840	101.66692	1082.32971	1871.34399	-34.18151	1076.98804	1841.51123	89.44054	1004.59857	1597.28821	224.58533	503.55734	1811.40002	-129.38593	653.60052	1877.13635	128.24269	165.72923	1845.55444	-56.93893	315.90710	1790.15344	
404	4.030	-8.43510	1526.80322	1963.12488				145.69711	1650.54358	1887.63171	-79.76581	1603.60144	1855.64355	232.34689	1506.30151	1776.99719				55.38293	1391.17395	1825.30908				355.52734	1221.72583	1790.67371	-204.34889	1196.73792	1615.29468				-287.29816	951.61987	1622.13171	100.34879	1081.44812	1879.84204	-35.21505	1075.14258	1850.06763	89.11710	1004.71191	1605.14539	224.01927	502.08649	1810.39453	-133.09616	655.08966	1885.85278	131.56056	162.43005	1842.91492	-60.92199	302.17264	1811.71814	
405	4.040	-10.53751	1524.78760	1970.72144				143.75237	1649.13940	1897.07153	-80.73700	1601.75952	1863.54077	231.15639	1505.88599	1785.81042				53.76668	1390.12634	1832.84778				356.08118	1222.33228	1800.96875	-204.31509	1197.80542	1617.27966				-287.10315	951.90045	1619.26440	99.65879	1079.62000	1887.47754	-36.45515	1073.27136	1857.27075	87.51243	1004.54791	1614.11707	223.44681	500.55341	1809.05981	-138.02292	654.22644	1897.82336	134.28195	160.37582	1842.13098	-66.97821	288.46518	1832.99854	
406	4.050	-12.37111	1523.52625	1979.94409				141.89635	1647.59192	1906.60400	-82.58572	1600.66467	1873.06433	229.67729	1504.34949	1793.69580				52.50507	1389.32581	1841.27026							-204.25070	1198.41272	1619.97302				-286.49689	951.83856	1617.52795	97.74716	1078.43420	1896.07507	-37.98168	1072.35266	1867.47974	86.42718	1004.16528	1622.92065	223.21950	498.87009	1807.45923	-140.27054	652.98651	1902.83020	138.09906	157.86615	1839.39917	-73.19189	273.70425	1856.43030	
407	4.060	-14.70279	1521.27625	1986.86768	70.79341	1748.63208	1792.80798	140.30980	1646.19946	1916.03333	-84.57121	1599.52710	1880.66907	227.53018	1503.84985	1802.97449				50.59784	1387.65259	1850.64624	356.37790	1221.64343	1822.33997				-204.04645	1198.68298	1622.93225				-286.05865	951.20496	1614.50220	95.78166	1077.47852	1905.52454	-40.63295	1070.61475	1875.86865	85.93401	1003.11035	1632.58508	224.11134	499.43369	1810.31519	-142.81410	650.25153	1906.43677	142.36252	156.66826	1839.57178	-80.18739	259.17395	1877.41077	
408	4.070	-16.20090	1519.64160	1995.70825	69.06847	1747.96777	1802.55847	138.24760	1644.68774	1924.93127	-86.07458	1598.04932	1889.52722	225.77225	1501.89063	1810.72864				48.35440	1386.54590	1858.21655	356.18933	1221.30042	1833.49866										-285.36588	951.73889	1613.20361	94.48157	1076.01636	1912.71997	-42.05503	1070.04858	1885.36597	83.25187	1002.20746	1641.85229	224.43117	497.77649	1808.87830	-144.37517	646.06122	1909.28467	142.25749	155.12509	1838.19934	-88.19965	244.65089	1901.03284	
409	4.080	-18.89327	1517.40015	2002.96436				136.37802	1643.23120	1933.73523	-88.05719	1596.44690	1896.04773	223.80600	1500.76270	1818.12854				47.31763	1385.77136	1866.70056	356.13342	1220.17700	1842.84241				-204.25427	1199.12085	1628.75342				-284.33224	952.00116	1612.60022	92.45614	1074.90417	1922.28101	-44.49855	1068.07703	1893.91516	82.05809	1000.79163	1649.93091	224.93781	496.10312	1807.35315	-145.92429	640.56152	1911.59253				-97.89688	229.84344	1923.17163	
410	4.090	-20.67819	1515.71423	2011.27563	65.60192	1744.92761	1820.32495	134.25809	1641.36902	1942.49170	-89.97579	1594.69263	1906.01929	221.95625	1498.90796	1825.44666				44.87732	1383.73096	1874.33325	355.25699	1219.66504	1853.58118				-204.17088	1199.42822	1634.02917				-283.59320	952.10504	1612.50879	90.57982	1074.48047	1930.86511	-46.45394	1066.90771	1903.62378	80.04315	999.85583	1659.79102	224.91418	496.18961	1807.21106	-147.48750	633.25745	1913.91760				-106.17461	214.64781	1948.66711	
